<svg version="1.1" viewBox="0 0 300 94" xmlns="http://www.w3.org/2000/svg">
  <style>
	@keyframes aAnim {
		0% {
			transform: scale(0, 1);
		}
		2% {
			transform: scale(1, 1);
		}
		48% {
			transform: scale(1, 1);
		}
		50% {
			transform: scale(0, 1);
		}
		100% {
			transform: scale(0, 1);
		}
	}
	#logoYodaChar {
		transform-origin: 69px 50px;
		transform: scale(0, 1);
		animation: aAnim 90s 45s infinite;
	}
	#logoAChar {
		transform-origin: 69px 50px;
		animation: aAnim 90s 0s infinite;
	}
	#logoPiramid {
		display: none;
	}
	
  </style>
  <defs>
        <linearGradient id="logoFill" x1="0" y1="0" x2="0" y2="100%">
            <stop offset="0%" style="stop-color:#e6bb00" />
            <stop offset="100%" style="stop-color:#a84c00" />
        </linearGradient>
  </defs>
  <g fill="url(#logoFill)">
   <path d="m18 20c-7.2 0-13 6.11-13 13.7v20.6c0 7.59 5.8 13.7 13 13.7h23.8v-11.4h-19.7c-2.26-2e-4 -4.09-1.93-4.09-4.31v-16.5c1.96e-4 -2.38 1.83-4.31 4.09-4.31h19.7v-11.4z" />
   
   <path id="logoYodaChar" d="m62 20-14.3 48h12.4l-1.92-13.1s-0.381-0.0938-0.647-0.0938c-0.266 0-0.475 0.133-0.475 0.133s-0.513-0.724-0.133-1.47c0.38-0.742 1.65-1.44 1.65-1.44s-0.303-1.05 0.172-1.31c0.475-0.266 1.25-0.0176 1.25-0.0176s0.61-0.743 1.1-1.33c0.494-0.59 1.67-0.913 1.67-0.913s-0.0377-0.951 0.152-2.05c0.19-1.1 1.08-1.98 1.08-1.98s-0.497-0.215-0.659-0.457c-0.161-0.242-0.149-0.565-0.149-0.565s-1.49 0.0802-2.47-0.256c-0.982-0.336-2.26-0.215-2.26-0.215 0 0 0.349-1.16 1.75-1.33 1.4-0.175 1.84-0.727 1.84-0.727s-0.349-1.57 0.62-2.53c0.968-0.955 1.16-1.88 1.16-1.88s1.47-0.887 3.46-0.0528c1.99 0.834 2.47 2.02 2.47 2.02s1.29-0.0532 1.95-0.43c0.659-0.377 2.13-0.579 2.13-0.579 0 0-0.889 1.53-1.35 2.49-0.457 0.955-2.1 1.26-2.1 1.26 0 0 0.0947 0.444-0.0801 0.901-0.175 0.457-0.457 0.805-0.457 0.805s1.36-0.536 2.78-0.0117c1.43 0.524 2.39 1.96 2.65 2.18 0 0 0.443 0.0135 0.981-0.686 0.538-0.699 1.29-1.01 1.4-0.672 0.108 0.336-0.593 1.4-0.418 1.77 0.175 0.377 1.3-0.254 1.9-0.0117 0.592 0.242-0.538 0.913-0.887 1.17-0.35 0.256-0.713 0.606-0.551 1.84 0.161 1.24 1.14 5.77-0.135 6.21-1.28 0.444-3.25-1.67-3.25-1.67 0 0-0.348 4.77 0.0684 5.71 0.417 0.941 1.58 2.9 1.71 4.69 0.133 1.79 0.0569 3.61 0.913 4.41 0.0507 0.0473 0.166 0.119 0.231 0.172h11.6l-14.3-48zm-1.87
   48h0.369c0.127-2.75 0.574-6.46 0.809-8.22 0.247-1.84 0.457-2.57 0.457-2.57s-0.799-0.229-1.41-0.799c-0.609-0.571-1.2-1.25-1.2-1.25l1.27 12.7z" />
   <path id="logoAChar" d="m62 20-14 48h13l8-27 8 27h13l-14-48z" />
   <path id="logoPiramid" d="m69 13-21 58h3.2l18-49 3.4 9.3-13 37h-3v3.1h34zm5 23 4.3 12-7.4 20h-8.7zm5.9 16 5.8 16h-12z" />
   
   <path d="m96 20v48h13v-26l15 26h13v-48h-13v26l-15-26z" />
   <path d="m144 20v11h12v36h13v-36h12v-11z" />
   <path d="m187 20v48h13v-48z" />
   <path d="m206 20v48h13v-26l15 26h13v-48h-13v26l-15-26z" />
   <path d="m268 20-14 48h13l8-27 8 27h13l-14-48z" />
  </g>
  <g fill="#e6bb00">
   <path d="m30 10v2h101v-2z" />
   <path d="m171 10v2h100v-2z" />
   <path d="m133 2v2.5h3.8v7.5h2.5v-7.5h3.8v-2.5h-6.3z" />
   <path d="m146 2v10h2.5v-3.8h5v3.8h2.5v-10h-2.5v3.8h-5v-3.8z" />
   <path d="m158 2v10h10v-2.5h-7.5v-1.4h5.6v-2h-5.6v-1.6h7.5v-2.5h-7.5z" />
  </g>
	<g fill="#a84c00">
		<path d="m30 76v2h82v-2z" />
		<path d="m186 76v2h84v-2z" />
		<path d="m151 76v3.1h8c1.4 0 2.5 1 2.5 2.2-7.8e-4 0.84-0.53 1.6-1.4 2-5e-3 3e-3 -9e-3 4e-3 -0.014 7e-3l-6.9 2.7a3.5 3.1 0 0 0-0.21 0.082l-0.076 0.03-4e-3 5e-3a3.5 3.1 0 0 0-1.9 2.8l4e-3 3.1h14v-3.1h-9.8l6.2-2.7 2e-3 -4e-3v-2e-3c2.1-0.87 3.5-2.8 3.5-4.8 0-2.9-2.7-5.3-6-5.3z" />
		<path d="m171 76c-1.9 0-3.5 1.4-3.5 3.1v9.8c0 1.7 1.6 3.1 3.5 3.1h7c1.9 0 3.5-1.4 3.5-3.1v-9.8c0-1.7-1.6-3.1-3.5-3.1zm1 3.1h5c0.55 0 1 0.4 1 0.89v8c0 0.49-0.45 0.89-1 0.89h-5c-0.55 0-1-0.4-1-0.89v-8c0-0.49 0.45-0.89 1-0.89z" />
		<path d="m138 76c-1.9 0-3.5 1.4-3.5 3.1v9.8c0 1.7 1.6 3.1 3.5 3.1h7c1.9 0 3.5-1.4 3.5-3.1v-9.8c0-1.7-1.6-3.1-3.5-3.1zm1 3.1h5c0.55 0 1 0.4 1 0.89v8c0 0.49-0.45 0.89-1 0.89h-5c-0.55 0-1-0.4-1-0.89v-8c0-0.49 0.45-0.89 1-0.89z" />
		<path d="m118 76v3.1h8c1.4 0 2.5 1 2.5 2.2-7.8e-4 0.84-0.53 1.6-1.4 2-5e-3 3e-3 -9e-3 4e-3 -0.014 7e-3l-6.9 2.7a3.5 3.1 0 0 0-0.21 0.082l-0.076 0.03-4e-3 5e-3a3.5 3.1 0 0 0-1.9 2.8l4e-3 3.1h14v-3.1h-9.8l6.2-2.7 2e-3 -3e-3v-2e-3c2.1-0.87 3.5-2.8 3.5-4.8 0-2.9-2.7-5.3-6-5.3z" />

	</g>
</svg>
