<svg version="1.1" viewBox="0 0 80 22" xmlns="http://www.w3.org/2000/svg">
    <defs>
        <linearGradient id="fll" x1="0" y1="0" x2="0" y2="100%">
            <stop offset="0%" style="stop-color:#e6bb00" />
            <stop offset="100%" style="stop-color:#a84c00" />
        </linearGradient>
    </defs>
    <g transform="translate(-8.44e-7 -273)" fill="url(#fll)">
        <path d="m0.313 273v17.5l0.0256 0.0253h3.07v-5.89l0.626-1.06 2.96 4.35 3.31-0.402-4.59-6.79 4.59-7.73h-3.23l-3.66 6.5v-6.5z"/>
        <path d="m16.1 273-4.55 14.3 2.87-0.302 0.73-2.86 4.1-0.222 0.687 2.53 3.02-0.226-4.35-13.3zm1.07 3.3 1.48 5.45-2.9 0.116z"/>
        <path d="m24.5 273v13.2l3-0.16v-5.03l3.65-0.186v5.07l3-0.082v-12.8h-3v5.64l-3.65 0.186v-5.82z"/>
        <path d="m35.5 273v2.24h2.8v10.5h2.95v-10.5h2.8v-2.24z"/>
        <path d="m45.4 273v12.8l2.65 0.0749v8e-3l0.0044-8e-3 0.199 5e-3v-0.37l3.97-7.29v7.83l2.86 0.157v-13.2h-2.86v0.235l-3.97 7.29v-7.53z"/>
        <path d="m57.3 273v13.3l3 0.228v-5.47l3.65 0.093v5.7l3 0.317v-14.2h-3v6.04l-3.65-0.093v-5.94z"/>
        <path d="m72.6 273-4.55 14.3 2.78 0.358 0.759-3.02 3.82 0.378 1.26 5.45h3.04l-4.6-17.5zm1.01 3.26 1.34 6.3-2.79-0.2z"/>
        <g fill="#a84c00">
            <path d="m73.6 290s-14.1-2.19-34.1-2.19c-20 0-34 2.19-34 2.19l0.0462 0.792s14-2.17 34-2.17c20 0 34.1 2.19 34.1 2.19z"/>
            <path d="m25.4 293q-0.016 0.0694-0.051 0.164-0.0351 0.0947-0.0606 0.148h-4.51l-0.0893-0.0852q0.0159-0.0695 0.051-0.158 0.0351-0.0884 0.0638-0.152h4.51z"/>
            <path d="m31.7 294q-0.0128 0.136-0.0287 0.265-0.0159 0.129-0.0351 0.243-0.0191 0.11-0.0383 0.196-0.016 0.0821-0.0287 0.129h-2.84v-0.167q0.217-0.0442 0.335-0.0947 0.118-0.0537 0.118-0.0979v-3.25q0-0.0379-0.112-0.0947t-0.341-0.101v-0.167h2.65l0.112 0.0852q-0.0064 0.0821-0.0191 0.189-0.0128 0.104-0.0319 0.215-0.0191 0.107-0.0414 0.205-0.0191 0.0979-0.0383 0.158h-0.175q-0.016-0.29-0.0797-0.414-0.0638-0.123-0.182-0.123h-1.14v1.34h1.28l0.0893 0.0947q-0.0255 0.0442-0.0638 0.0979-0.0351 0.0537-0.0765 0.104-0.0383 0.0505-0.0797 0.0947-0.0383 0.0442-0.0733 0.0694-0.0478-0.0473-0.105-0.0789-0.0542-0.0316-0.128-0.0537-0.0702-0.0221-0.169-0.0316-0.0956-9e-3 -0.23-9e-3h-0.45v1.52q0 0.0474 0.0223 0.0852 0.0223 0.0347 0.0925 0.0631 0.0702 0.0253 0.198 0.041 0.128 0.0126 0.338 0.0126h0.379q0.147 0 0.249-0.0221 0.105-0.0221 0.185-0.0852 0.0797-0.0631 0.143-0.177 0.067-0.114 0.134-0.3z"/>
            <path d="m34.2 293q0 0.224-0.067 0.385-0.0638 0.158-0.169 0.268-0.102 0.11-0.233 0.177-0.128 0.0663-0.258 0.101-0.128 0.0347-0.242 0.0442-0.112 0.0126-0.182 0.0126-0.0861 0-0.188-0.0158-0.102-0.0126-0.214-0.041-0.108-0.0284-0.223-0.0726t-0.22-0.101q-0.0223-9e-3 -0.0319-0.104-0.0064-0.0979-0.0064-0.224 0.0032-0.129 0.0191-0.265 0.0159-0.136 0.0414-0.221l0.175 0.0347q0.016 0.145 0.0829 0.268 0.067 0.12 0.172 0.212 0.105 0.0884 0.242 0.139t0.293 0.0505q0.23 0 0.363-0.117 0.134-0.12 0.134-0.331 0-0.126-0.067-0.224-0.067-0.0979-0.179-0.18-0.108-0.0821-0.249-0.155-0.14-0.0726-0.287-0.148-0.134-0.0663-0.261-0.142-0.128-0.0789-0.23-0.174-0.0988-0.0979-0.159-0.215-0.0606-0.12-0.0606-0.271 0-0.196 0.0861-0.35t0.226-0.259q0.14-0.107 0.322-0.161 0.185-0.0568 0.376-0.0568 0.112 0 0.236 0.0189 0.128 0.0158 0.245 0.0474 0.121 0.0316 0.223 0.0758 0.105 0.0442 0.172 0.101 0.0191 0.0158 0.0064 0.0916-0.0128 0.0726-0.0446 0.164-0.0287 0.0884-0.067 0.174-0.0351 0.0821-0.0606 0.114l-0.156-0.0252q-0.128-0.243-0.29-0.35-0.159-0.11-0.332-0.11-0.102 0-0.185 0.0316-0.0797 0.0316-0.137 0.0821-0.0542 0.0473-0.0829 0.11-0.0287 0.0631-0.0287 0.129 0 0.101 0.0574 0.183 0.0574 0.0789 0.153 0.152 0.0988 0.0694 0.226 0.136 0.131 0.0663 0.274 0.142 0.137 0.0695 0.277 0.148 0.14 0.0789 0.252 0.183 0.112 0.101 0.182 0.234 0.0702 0.129 0.0702 0.306z"/>
            <path d="m36.7 294q-0.351 0.256-0.641 0.382-0.29 0.123-0.459 0.123-0.118 0-0.226-0.0474-0.108-0.0442-0.191-0.142-0.0797-0.0979-0.128-0.253-0.0478-0.155-0.0478-0.376v-1.88h-0.402l-0.0765-0.0979 0.249-0.234h0.23v-0.739l0.469-0.376 0.105 0.0884v1.03h1.02l0.0988 0.0979q-0.0287 0.0473-0.0733 0.101-0.0414 0.0537-0.0861 0.101-0.0446 0.0473-0.0893 0.0852-0.0414 0.0379-0.0733 0.0568-0.0765-0.0379-0.233-0.0726-0.153-0.0379-0.383-0.0379h-0.182v1.6q0 0.18 0.0191 0.3t0.0574 0.196q0.0383 0.0726 0.0988 0.104 0.0606 0.0284 0.143 0.0284 0.112 0 0.274-0.0442 0.163-0.0473 0.418-0.177z"/>
            <path d="m38 294q0 0.114-0.0383 0.212-0.0383 0.0947-0.105 0.164-0.0638 0.0694-0.153 0.107-0.0893 0.041-0.191 0.041-0.175 0-0.271-0.0947t-0.0956-0.284q0-0.114 0.0383-0.208 0.0414-0.0947 0.108-0.164 0.067-0.0726 0.156-0.11 0.0893-0.041 0.188-0.041 0.166 0 0.265 0.0947 0.0988 0.0947 0.0988 0.284z"/>
            <path d="m40.4 294v-0.199q0.249-0.0284 0.414-0.0631 0.166-0.0379 0.265-0.0758 0.0988-0.0379 0.14-0.0726 0.0414-0.0379 0.0414-0.0726v-2.45q0-0.126-0.0095-0.196-0.0095-0.0695-0.0478-0.114-0.0191-0.0189-0.0733-0.0316-0.051-0.0126-0.15-9e-3 -0.0956 3e-3 -0.246 0.0221-0.147 0.0189-0.357 0.0631l-0.0765-0.193q0.134-0.0347 0.328-0.101 0.198-0.0663 0.402-0.145 0.204-0.0789 0.386-0.155 0.185-0.0789 0.293-0.136l0.124 0.117v3.33q0 0.0316 0.0351 0.0694 0.0351 0.0347 0.124 0.0726 0.0893 0.0379 0.242 0.0758 0.156 0.0379 0.395 0.0663v0.199z"/>
            <path d="m44.6 293q0.207 0 0.383-0.11 0.175-0.114 0.309-0.287-0.0064-0.407-0.0765-0.672-0.067-0.268-0.172-0.423-0.105-0.158-0.233-0.221-0.124-0.0631-0.245-0.0631-0.153 0-0.274 0.0631-0.118 0.06-0.201 0.174-0.0829 0.11-0.128 0.265-0.0414 0.155-0.0414 0.341 0 0.284 0.067 0.467 0.067 0.18 0.166 0.284 0.102 0.104 0.22 0.145 0.121 0.0379 0.226 0.0379zm1.3-0.54q0 0.48-0.137 0.893-0.137 0.41-0.418 0.732-0.277 0.319-0.701 0.53-0.421 0.212-0.992 0.287l-0.0638-0.218q0.43-0.107 0.736-0.271t0.504-0.379q0.201-0.218 0.306-0.48 0.105-0.262 0.137-0.562-0.172 0.18-0.392 0.287-0.22 0.104-0.443 0.104-0.265 0-0.472-0.0884-0.204-0.0884-0.344-0.24-0.14-0.152-0.214-0.357-0.0733-0.205-0.0733-0.442 0-0.24 0.0988-0.486 0.0988-0.246 0.277-0.445 0.179-0.202 0.424-0.328 0.249-0.129 0.542-0.129 0.245 0 0.469 0.0915 0.223 0.0916 0.389 0.287 0.169 0.193 0.268 0.492 0.0988 0.3 0.0988 0.72z"/>
            <path d="m47.7 293q0.207 0 0.383-0.11 0.175-0.114 0.309-0.287-0.0064-0.407-0.0765-0.672-0.067-0.268-0.172-0.423-0.105-0.158-0.233-0.221-0.124-0.0631-0.245-0.0631-0.153 0-0.274 0.0631-0.118 0.06-0.201 0.174-0.0829 0.11-0.128 0.265-0.0414 0.155-0.0414 0.341 0 0.284 0.067 0.467 0.067 0.18 0.166 0.284 0.102 0.104 0.22 0.145 0.121 0.0379 0.226 0.0379zm1.3-0.54q0 0.48-0.137 0.893-0.137 0.41-0.418 0.732-0.277 0.319-0.701 0.53-0.421 0.212-0.992 0.287l-0.0638-0.218q0.43-0.107 0.736-0.271t0.504-0.379q0.201-0.218 0.306-0.48 0.105-0.262 0.137-0.562-0.172 0.18-0.392 0.287-0.22 0.104-0.443 0.104-0.265 0-0.472-0.0884-0.204-0.0884-0.344-0.24-0.14-0.152-0.214-0.357-0.0733-0.205-0.0733-0.442 0-0.24 0.0988-0.486 0.0988-0.246 0.277-0.445 0.179-0.202 0.424-0.328 0.249-0.129 0.542-0.129 0.245 0 0.469 0.0915 0.223 0.0916 0.389 0.287 0.169 0.193 0.268 0.492 0.0988 0.3 0.0988 0.72z"/>
            <path d="m50.9 293q0.207 0 0.383-0.11 0.175-0.114 0.309-0.287-0.0064-0.407-0.0765-0.672-0.067-0.268-0.172-0.423-0.105-0.158-0.233-0.221-0.124-0.0631-0.245-0.0631-0.153 0-0.274 0.0631-0.118 0.06-0.201 0.174-0.0829 0.11-0.128 0.265-0.0414 0.155-0.0414 0.341 0 0.284 0.067 0.467 0.067 0.18 0.166 0.284 0.102 0.104 0.22 0.145 0.121 0.0379 0.226 0.0379zm1.3-0.54q0 0.48-0.137 0.893-0.137 0.41-0.418 0.732-0.277 0.319-0.701 0.53-0.421 0.212-0.992 0.287l-0.0638-0.218q0.43-0.107 0.736-0.271t0.504-0.379q0.201-0.218 0.306-0.48 0.105-0.262 0.137-0.562-0.172 0.18-0.392 0.287-0.22 0.104-0.443 0.104-0.265 0-0.472-0.0884-0.204-0.0884-0.344-0.24-0.14-0.152-0.214-0.357-0.0733-0.205-0.0733-0.442 0-0.24 0.0988-0.486 0.0988-0.246 0.277-0.445 0.179-0.202 0.424-0.328 0.249-0.129 0.542-0.129 0.245 0 0.469 0.0915 0.223 0.0916 0.389 0.287 0.169 0.193 0.268 0.492 0.0988 0.3 0.0988 0.72z"/>
            <path d="m58.8 293q-0.0159 0.0694-0.051 0.164-0.0351 0.0947-0.0606 0.148h-4.51l-0.0893-0.0852q0.016-0.0695 0.051-0.158 0.0351-0.0884 0.0638-0.152h4.51z"/>
        </g>
    </g>
</svg>
