<svg version="1.1" viewBox="0 0 300 94" xmlns="http://www.w3.org/2000/svg">
  <g fill="currentColor">
   <path d="m18 20c-7.2 0-13 6.11-13 13.7v20.6c0 7.59 5.8 13.7 13 13.7h23.8v-11.4h-19.7c-2.26-2e-4 -4.09-1.93-4.09-4.31v-16.5c1.96e-4 -2.38 1.83-4.31 4.09-4.31h19.7v-11.4z" />
   
   <path id="logoAChar" d="m62 20-14 48h13l8-27 8 27h13l-14-48z" />
   
   <path d="m96 20v48h13v-26l15 26h13v-48h-13v26l-15-26z" />
   <path d="m144 20v11h12v36h13v-36h12v-11z" />
   <path d="m187 20v48h13v-48z" />
   <path d="m206 20v48h13v-26l15 26h13v-48h-13v26l-15-26z" />
   <path d="m268 20-14 48h13l8-27 8 27h13l-14-48z" />
  </g>
  <g fill="currentColor">
   <path d="m30 10v2h101v-2z" />
   <path d="m171 10v2h100v-2z" />
   <path d="m133 2v2.5h3.8v7.5h2.5v-7.5h3.8v-2.5h-6.3z" />
   <path d="m146 2v10h2.5v-3.8h5v3.8h2.5v-10h-2.5v3.8h-5v-3.8z" />
   <path d="m158 2v10h10v-2.5h-7.5v-1.4h5.6v-2h-5.6v-1.6h7.5v-2.5h-7.5z" />
  </g>
	<g fill="currentColor">
		<path d="m30 76v2h82v-2z" />
		<path d="m186 76v2h84v-2z" />
		<path d="m151 76v3.1h8c1.4 0 2.5 1 2.5 2.2-7.8e-4 0.84-0.53 1.6-1.4 2-5e-3 3e-3 -9e-3 4e-3 -0.014 7e-3l-6.9 2.7a3.5 3.1 0 0 0-0.21 0.082l-0.076 0.03-4e-3 5e-3a3.5 3.1 0 0 0-1.9 2.8l4e-3 3.1h14v-3.1h-9.8l6.2-2.7 2e-3 -4e-3v-2e-3c2.1-0.87 3.5-2.8 3.5-4.8 0-2.9-2.7-5.3-6-5.3z" />
		<path d="m171 76c-1.9 0-3.5 1.4-3.5 3.1v9.8c0 1.7 1.6 3.1 3.5 3.1h7c1.9 0 3.5-1.4 3.5-3.1v-9.8c0-1.7-1.6-3.1-3.5-3.1zm1 3.1h5c0.55 0 1 0.4 1 0.89v8c0 0.49-0.45 0.89-1 0.89h-5c-0.55 0-1-0.4-1-0.89v-8c0-0.49 0.45-0.89 1-0.89z" />
		<path d="m138 76c-1.9 0-3.5 1.4-3.5 3.1v9.8c0 1.7 1.6 3.1 3.5 3.1h7c1.9 0 3.5-1.4 3.5-3.1v-9.8c0-1.7-1.6-3.1-3.5-3.1zm1 3.1h5c0.55 0 1 0.4 1 0.89v8c0 0.49-0.45 0.89-1 0.89h-5c-0.55 0-1-0.4-1-0.89v-8c0-0.49 0.45-0.89 1-0.89z" />
		<path d="m118 76v3.1h8c1.4 0 2.5 1 2.5 2.2-7.8e-4 0.84-0.53 1.6-1.4 2-5e-3 3e-3 -9e-3 4e-3 -0.014 7e-3l-6.9 2.7a3.5 3.1 0 0 0-0.21 0.082l-0.076 0.03-4e-3 5e-3a3.5 3.1 0 0 0-1.9 2.8l4e-3 3.1h14v-3.1h-9.8l6.2-2.7 2e-3 -3e-3v-2e-3c2.1-0.87 3.5-2.8 3.5-4.8 0-2.9-2.7-5.3-6-5.3z" />

	</g>
</svg>
